HIERARCHY
ROOT Hips
{
	OFFSET 0.000000 0.000000 0.000000
	CHANNELS 6 Xposition Yposition Zposition Xrotation Yrotation Zrotation
	JOINT LeftUpLeg_virtual
	{
		OFFSET 0.000000 0.000000 0.000000
		CHANNELS 3 Xrotation Yrotation Zrotation
		JOINT LeftUpLeg
		{
			OFFSET 11.394100 -6.187798 -0.413800
			CHANNELS 3 Xrotation Yrotation Zrotation
			JOINT LeftLeg
			{
				OFFSET 0.430247 -32.302673 3.732800
				CHANNELS 3 Xrotation Yrotation Zrotation
				JOINT LeftFoot
				{
					OFFSET -0.430247 -48.264931 -6.423300
					CHANNELS 3 Xrotation Yrotation Zrotation
					JOINT LeftToeBase
					{
						OFFSET 4.230900 -16.068199 23.438400
						CHANNELS 3 Xrotation Yrotation Zrotation
						JOINT LeftToe_End
						{
							OFFSET 4.510700 0.695400 19.974600
							CHANNELS 3 Xrotation Yrotation Zrotation
							End Site
							{
								OFFSET 0 0 0
							}
						}
					}
				}
			}
		}
	}
	JOINT RightUpLeg_virtual
	{
		OFFSET 0.000000 0.000000 0.000000
		CHANNELS 3 Xrotation Yrotation Zrotation
		JOINT RightUpLeg
		{
			OFFSET -11.333700 -6.187798 -0.413800
			CHANNELS 3 Xrotation Yrotation Zrotation
			JOINT RightLeg
			{
				OFFSET -0.430392 -32.302628 3.733000
				CHANNELS 3 Xrotation Yrotation Zrotation
				JOINT RightFoot
				{
					OFFSET 0.430392 -48.264973 -6.423500
					CHANNELS 3 Xrotation Yrotation Zrotation
					JOINT RightToeBase
					{
						OFFSET -4.230900 -16.068199 23.438400
						CHANNELS 3 Xrotation Yrotation Zrotation
						JOINT RightToe_End
						{
							OFFSET -4.510700 0.695400 19.974600
							CHANNELS 3 Xrotation Yrotation Zrotation
							End Site
							{
								OFFSET 0 0 0
							}
						}
					}
				}
			}
		}
	}
	JOINT Spine_virtual
	{
		OFFSET 0.000000 0.000000 0.000000
		CHANNELS 3 Xrotation Yrotation Zrotation
		JOINT Spine
		{
			OFFSET -0.002400 12.777504 0.315300
			CHANNELS 3 Xrotation Yrotation Zrotation
			JOINT Spine1
			{
				OFFSET -0.002067 5.816869 0.032633
				CHANNELS 3 Xrotation Yrotation Zrotation
				JOINT Spine1_split
				{
					OFFSET -0.002067 5.816869 0.032633
					CHANNELS 3 Xrotation Yrotation Zrotation
					JOINT Spine2
					{
						OFFSET -0.002067 5.816869 0.032633
						CHANNELS 3 Xrotation Yrotation Zrotation
						JOINT Neck_virtual
						{
							OFFSET 0.000000 0.000000 0.000000
							CHANNELS 3 Xrotation Yrotation Zrotation
							JOINT Neck
							{
								OFFSET -0.003700 21.199493 -0.826900
								CHANNELS 3 Xrotation Yrotation Zrotation
								JOINT Head
								{
									OFFSET 0.000000 20.442200 4.834800
									CHANNELS 3 Xrotation Yrotation Zrotation
									JOINT HeadTop_End
									{
										OFFSET 0.000000 34.668396 4.968400
										CHANNELS 3 Xrotation Yrotation Zrotation
										End Site
										{
											OFFSET 0 0 0
										}
									}
								}
							}
						}
						JOINT LeftShoulder_virtual
						{
							OFFSET 0.000000 0.000000 0.000000
							CHANNELS 3 Xrotation Yrotation Zrotation
							JOINT LeftShoulder
							{
								OFFSET 3.288150 8.794197 -1.372250
								CHANNELS 3 Xrotation Yrotation Zrotation
								JOINT LeftShoulder_split
								{
									OFFSET 3.288150 8.794197 -1.372250
									CHANNELS 3 Xrotation Yrotation Zrotation
									JOINT LeftArm
									{
										OFFSET 11.953299 -2.279007 -0.146200
										CHANNELS 3 Xrotation Yrotation Zrotation
										JOINT LeftForeArm
										{
											OFFSET 18.448900 0.000000 0.000000
											CHANNELS 3 Xrotation Yrotation Zrotation
											JOINT LeftHand
											{
												OFFSET 29.527798 0.000000 0.000000
												CHANNELS 3 Xrotation Yrotation Zrotation
												End Site
												{
													OFFSET 0 0 0
												}
											}
										}
									}
								}
							}
						}
						JOINT RightShoulder_virtual
						{
							OFFSET 0.000000 0.000000 0.000000
							CHANNELS 3 Xrotation Yrotation Zrotation
							JOINT RightShoulder
							{
								OFFSET -3.249400 8.794197 -1.372250
								CHANNELS 3 Xrotation Yrotation Zrotation
								JOINT RightShoulder_split
								{
									OFFSET -3.249400 8.794197 -1.372250
									CHANNELS 3 Xrotation Yrotation Zrotation
									JOINT RightArm
									{
										OFFSET -11.953299 -2.279007 -0.146200
										CHANNELS 3 Xrotation Yrotation Zrotation
										JOINT RightForeArm
										{
											OFFSET -18.448900 0.000000 0.000000
											CHANNELS 3 Xrotation Yrotation Zrotation
											JOINT RightHand
											{
												OFFSET -29.527802 0.000000 0.000000
												CHANNELS 3 Xrotation Yrotation Zrotation
												End Site
												{
													OFFSET 0 0 0
												}
											}
										}
									}
								}
							}
						}
					}
				}
			}
		}
	}
}
MOTION
Frames: 10
Frame Time: 0.03333333
-3.005505 143.931625 -1.549782 0.000000 0.000000 0.000000 6.066335 -0.013720 4.441463 -48.934214 11.654701 3.362018 41.189394 10.696708 -2.264070 43.405938 9.033309 4.470542 -5.136350 1.623559 0.134606 0.000000 0.000000 0.000000 7.601341 1.434831 4.023436 -11.623204 4.717722 -6.777748 29.272309 -5.513730 3.996964 30.617143 -11.209900 19.903265 1.835512 4.726036 -1.344080 0.000000 0.000000 0.000000 7.613319 -2.166200 4.263373 -8.698095 2.198514 0.454184 -5.141764 1.505288 0.641031 2.088778 -5.163217 2.605007 0.000000 0.000000 0.000000 -2.137305 0.270311 0.523203 -14.314062 -3.303613 -0.737525 -4.354342 1.198593 1.081387 0.000000 0.000000 0.000000 -6.815363 0.719288 0.351134 14.347912 1.489381 29.743541 11.772506 10.409131 -0.282993 -55.238161 -40.398165 3.774704 -41.890759 -23.883331 2.106359 0.000000 0.000000 0.000000 -7.202758 0.590595 1.423854 2.927320 -9.747896 -33.044582 -0.525456 4.256878 0.890909 -72.982798 32.828481 12.487153 -26.056017 28.399606 1.460587 0.000000 0.000000 0.000000 
-1.874048 144.357651 -3.508636 0.000000 0.000000 0.000000 5.954006 -1.764032 4.543740 -47.414234 9.614460 1.925387 43.297303 9.640938 -1.945138 40.668183 8.267185 3.801749 -5.175484 1.241169 0.791859 0.000000 0.000000 0.000000 7.718283 -0.235436 4.066625 -12.889749 2.632838 -7.061389 32.953446 -4.416525 4.106146 32.808260 -9.698172 19.868940 4.285276 4.625433 -1.659156 0.000000 0.000000 0.000000 7.773390 -3.477430 4.349251 -8.853633 1.995461 0.568912 -5.204319 1.704514 1.126035 1.508706 -3.324010 1.673402 0.000000 0.000000 0.000000 -1.375444 0.573937 0.697971 -14.532447 -3.516268 0.267353 -5.390439 0.675652 1.069915 0.000000 0.000000 0.000000 -6.546429 0.927800 0.778179 14.417134 1.568454 30.184293 11.060372 8.527065 -0.267959 -57.077316 -42.009236 1.156922 -40.332329 -24.176336 3.850951 0.000000 0.000000 0.000000 -6.541039 0.753471 1.560208 3.080611 -9.680677 -33.180287 -0.900367 4.225908 0.925667 -72.842192 32.122940 11.745221 -26.008635 28.567457 1.319795 0.000000 0.000000 0.000000 
-0.247525 145.080719 -6.246433 0.000000 0.000000 0.000000 5.348251 -5.222644 4.276370 -46.959886 7.235512 0.026233 48.186305 6.237823 -1.101334 35.095694 5.590272 2.388611 -5.459745 0.714757 1.213244 0.000000 0.000000 0.000000 7.682202 -3.598069 3.920053 -13.147317 0.309443 -7.307377 35.041575 -3.926709 3.916266 35.255463 -7.460645 19.324637 3.027748 4.353168 -0.943780 0.000000 0.000000 0.000000 7.575825 -6.855443 4.227765 -8.151517 2.217844 0.957957 -5.162532 2.724997 1.663587 1.444880 -1.301236 0.200308 0.000000 0.000000 0.000000 -0.757910 1.782481 0.874680 -14.919754 -3.247922 0.854375 -7.835904 0.875759 1.106418 0.000000 0.000000 0.000000 -6.411156 2.031508 1.135516 14.892659 2.352152 30.310850 9.833961 6.430112 -0.432853 -62.613505 -42.691619 -4.045687 -37.587545 -27.137064 7.233762 0.000000 0.000000 0.000000 -5.934657 1.830838 1.833269 3.918605 -9.070133 -33.255720 -1.291633 3.980724 0.746411 -73.232585 30.406226 11.332469 -26.277560 29.056960 1.111894 0.000000 0.000000 0.000000 
1.292316 146.113892 -8.731174 0.000000 0.000000 0.000000 4.591138 -9.701621 3.622977 -47.524893 5.196839 -1.836802 53.408330 2.240492 0.002594 27.634522 2.549903 0.869034 -5.990842 0.092535 1.436889 0.000000 0.000000 0.000000 7.574426 -8.834914 3.550206 -12.053546 -2.174196 -7.495675 34.807074 -4.354672 3.329774 36.004786 -6.248426 16.755714 0.750185 3.954431 0.803025 0.000000 0.000000 0.000000 6.967628 -12.667990 3.700866 -6.565362 2.899657 1.543350 -4.953664 4.450170 2.218103 1.835291 0.639747 -0.854265 0.000000 0.000000 0.000000 -0.415538 3.756687 1.064603 -15.392762 -2.694168 1.051258 -11.108516 1.823065 1.295575 0.000000 0.000000 0.000000 -6.224759 3.883000 1.368664 15.658366 3.998896 30.197274 7.754727 4.669529 -0.432447 -68.926724 -41.463862 -8.879483 -33.958259 -30.440049 12.369164 0.000000 0.000000 0.000000 -5.359723 3.783721 2.221129 5.208695 -8.091902 -33.427431 -1.783883 3.610401 0.328672 -74.081550 28.705704 11.322683 -26.672275 29.670991 0.756454 0.000000 0.000000 0.000000 
2.420385 147.460602 -10.929684 0.000000 0.000000 0.000000 4.021223 -15.484000 2.677979 -48.043131 3.996497 -3.268734 56.124064 -0.391555 0.785277 19.422235 1.287682 0.635147 -6.465576 -0.516897 1.386941 0.000000 0.000000 0.000000 7.604611 -16.036234 3.068912 -10.175906 -4.475741 -7.997876 32.886203 -5.326231 2.482872 35.275782 -6.331135 11.685407 1.406747 3.493631 3.433914 0.000000 0.000000 0.000000 6.148342 -20.348148 2.870924 -4.409108 3.999918 2.182623 -4.544908 6.657466 2.771655 2.502110 1.388436 -0.754627 0.000000 0.000000 0.000000 -0.296674 6.227508 1.300941 -15.635821 -2.080473 1.121296 -14.163579 3.431312 1.709039 0.000000 0.000000 0.000000 -5.760073 6.230770 1.474492 16.589240 6.460262 29.852599 5.454853 3.269428 -0.597425 -73.044434 -39.357824 -10.877979 -30.833991 -32.524937 18.100339 0.000000 0.000000 0.000000 -4.834787 6.403275 2.705041 6.656687 -6.897545 -33.845589 -2.229965 3.157836 -0.429478 -75.157756 28.035642 11.662946 -27.114862 30.473907 0.246157 0.000000 0.000000 0.000000 
3.027551 149.497040 -13.499981 0.000000 0.000000 0.000000 3.949713 -23.605564 1.762284 -47.430787 3.533796 -3.840748 54.787792 -0.706769 0.785321 12.235818 2.661265 2.506405 -6.377670 -0.958319 0.960106 0.000000 0.000000 0.000000 7.135408 -25.264501 2.434224 -8.860252 -6.545568 -9.019500 31.213264 -6.006178 1.641446 35.926563 -6.796803 6.009735 4.700878 3.134724 6.439531 0.000000 0.000000 0.000000 5.551159 -29.143065 1.937782 -2.163933 5.321726 2.693861 -3.937879 9.073647 3.264890 3.127679 0.219751 -0.579274 0.000000 0.000000 0.000000 -0.218950 8.860956 1.544822 -15.472112 -1.649607 1.295592 -16.130585 5.398109 2.379499 0.000000 0.000000 0.000000 -4.983233 8.803469 1.411427 17.637799 9.149272 29.172592 3.489230 2.343713 -0.548426 -73.301078 -36.616439 -8.454456 -29.182741 -32.411044 23.148443 0.000000 0.000000 0.000000 -4.179587 9.345906 3.200449 8.049564 -5.659108 -34.306971 -2.646277 2.562177 -1.604493 -76.463633 28.610585 12.195700 -27.452508 31.493517 -0.524065 0.000000 0.000000 0.000000 
3.188881 151.736160 -16.003075 0.000000 0.000000 0.000000 4.272039 -34.387025 1.228367 -45.409222 3.408402 -3.389305 49.736611 0.796576 0.254832 7.869883 5.950022 5.805177 -5.830084 -1.225708 0.048749 0.000000 0.000000 0.000000 6.434181 -35.881279 1.663305 -8.901246 -7.911638 -10.325548 29.901233 -5.516689 0.553745 39.168802 -6.448682 2.514180 5.917671 2.603353 8.910756 0.000000 0.000000 0.000000 5.409621 -38.858497 1.202483 -0.269886 6.663919 2.980648 -3.161827 11.469489 3.603784 3.236395 -1.305144 -0.093693 0.000000 0.000000 0.000000 -0.023331 11.411848 1.740873 -14.675983 -1.552001 1.614050 -16.292199 7.313294 3.135646 0.000000 0.000000 0.000000 -3.904156 11.344927 1.223241 18.729451 11.597813 28.373823 2.044630 1.666174 0.206585 -70.861382 -33.223256 -2.525737 -29.367078 -31.080673 26.627723 0.000000 0.000000 0.000000 -3.382131 12.273599 3.552575 9.146545 -4.530101 -34.643136 -2.626626 1.873487 -2.743638 -78.002659 29.972397 13.165273 -27.450179 32.902240 -1.731292 0.000000 0.000000 0.000000 
3.152139 153.070358 -18.497578 0.000000 0.000000 0.000000 4.588906 -46.214078 1.093589 -42.452730 3.228718 -2.011010 43.043716 2.608586 0.032787 7.695954 9.485359 8.343342 -5.701190 -1.429140 -0.826670 0.000000 0.000000 0.000000 6.088747 -46.776376 1.229010 -10.044156 -7.679891 -11.299022 27.910417 -3.157768 -1.122003 43.485444 -4.883940 1.783973 2.880217 1.425448 10.094143 0.000000 0.000000 0.000000 5.570809 -48.712014 0.955685 1.004484 7.887608 2.984247 -2.245656 13.685441 3.710427 2.871682 -2.393234 0.238969 0.000000 0.000000 0.000000 0.354284 13.687928 1.819780 -13.222457 -1.859050 2.001828 -14.098421 9.129752 3.737565 0.000000 0.000000 0.000000 -2.665156 13.652091 0.958608 19.739335 13.404468 27.448358 0.762557 1.388823 1.743908 -68.578344 -30.287798 3.359836 -30.094882 -30.801746 28.561512 0.000000 0.000000 0.000000 -2.514818 14.887628 3.644726 9.805844 -3.593684 -34.630258 -1.924215 1.046031 -3.438648 -80.142469 31.186750 14.874190 -26.965665 34.659296 -3.564850 0.000000 0.000000 0.000000 
3.071827 152.785278 -20.926762 0.000000 0.000000 0.000000 4.755878 -56.838153 1.316032 -39.107385 2.866731 -0.194966 36.644689 3.344647 0.370992 11.781733 11.554218 8.252982 -5.931232 -1.647691 -1.109631 0.000000 0.000000 0.000000 6.346114 -57.191626 1.602317 -11.952259 -6.061740 -11.721875 25.268176 -0.010526 -3.003951 47.190965 -3.294320 2.148562 -0.579131 0.300679 9.962129 0.000000 0.000000 0.000000 5.989856 -57.959244 1.362485 1.582871 8.890638 2.719916 -1.241003 15.643905 3.537379 1.888201 -2.517061 0.070809 0.000000 0.000000 0.000000 0.923025 15.547181 1.703351 -11.342066 -2.594560 2.411631 -9.653276 10.682477 3.957275 0.000000 0.000000 0.000000 -1.417798 15.651606 0.595300 20.472452 14.493105 25.962720 -0.305285 1.060731 3.162380 -68.140412 -28.277758 6.479473 -29.754978 -33.606744 29.487658 0.000000 0.000000 0.000000 -1.486362 17.013383 3.412628 10.049785 -2.792887 -34.110306 -0.404366 0.281072 -3.425852 -83.608632 31.345248 17.863818 -25.965314 36.936953 -6.165143 0.000000 0.000000 0.000000 
2.847217 150.679443 -23.373028 0.000000 0.000000 0.000000 5.158224 -65.417790 2.256893 -35.736332 2.315658 1.273325 31.017084 2.504457 1.035667 19.261260 10.951417 5.092855 -6.398838 -1.902091 -0.502110 0.000000 0.000000 0.000000 7.881836 -65.788450 3.621410 -14.820776 -3.738554 -11.886681 22.324880 2.890839 -4.579386 49.747348 -2.581442 2.343893 -1.036743 -0.049278 8.902825 0.000000 0.000000 0.000000 6.599737 -65.667781 2.414908 1.736454 9.670014 2.286402 -0.166459 17.314338 3.090963 0.958838 -2.164791 0.452512 0.000000 0.000000 0.000000 1.642295 17.036910 1.376073 -9.213769 -3.569853 2.690093 -3.614156 11.589197 3.662088 0.000000 0.000000 0.000000 -0.142712 17.312467 0.226023 20.694408 15.242228 23.784355 -0.704129 -0.119766 4.066288 -70.452124 -28.643730 5.068696 -27.756991 -39.941505 29.864971 0.000000 0.000000 0.000000 -0.436403 18.637875 2.885579 9.995502 -1.974413 -33.203940 1.444086 0.104369 -2.752733 -88.633610 29.864828 22.148903 -24.509258 40.022719 -9.436256 0.000000 0.000000 0.000000 
